<?xml version="1.0"?>
<svg xmlns="http://www.w3.org/2000/svg" height="512px" viewBox="0 0 64 64" width="512px" class=""><g><g id="Graphic_Design-Sketch-Editor-Tools-Blueprint" data-name="Graphic Design-Sketch-Editor-Tools-Blueprint"><path d="m33 28h-8a1 1 0 0 0 -1 1v25.59l-20.29-20.3a1 1 0 0 0 -1.09-.21.987.987 0 0 0 -.62.92v26a1 1 0 0 0 1 1h30a1 1 0 0 0 1-1v-32a1 1 0 0 0 -1-1zm-29 32v-22.59l22.59 22.59zm28-28h-4v2h4v2h-2v2h2v2h-2v2h2v2h-4v2h4v2h-2v2h2v2h-2v2h2v2h-4v2h4v2h-2.59l-3.41-3.41v-26.59h6z" data-original="#000000" class="active-path" data-old_color="#000000" fill="#FFFFFF"/><path d="m7 58h12.343a1 1 0 0 0 .707-1.707l-12.343-12.344a1 1 0 0 0 -1.707.707v12.344a1 1 0 0 0 1 1zm1-10.93 8.929 8.93h-8.929z" data-original="#000000" class="active-path" data-old_color="#000000" fill="#FFFFFF"/><path d="m49 34h-2.03a4.924 4.924 0 0 0 1.03-3 5.017 5.017 0 0 0 -4-4.9v-2.1h-2v2.1a5.017 5.017 0 0 0 -4 4.9 4.924 4.924 0 0 0 1.03 3h-2.03a1 1 0 0 0 -1 1v20a1.014 1.014 0 0 0 .4.8l3.6 2.7v3.5h2v-22h2v22h2v-3.5l3.6-2.7a1.014 1.014 0 0 0 .4-.8v-20a1 1 0 0 0 -1-1zm-6-6a3 3 0 1 1 -3 3 3.009 3.009 0 0 1 3-3zm-3 28-2-1.5v-14.5h2zm8-1.5-2 1.5v-16h2zm0-16.5h-10v-2h10z" data-original="#000000" class="active-path" data-old_color="#000000" fill="#FFFFFF"/><path d="m42 30h2v2h-2z" data-original="#000000" class="active-path" data-old_color="#000000" fill="#FFFFFF"/><path d="m61 24h-8a1 1 0 0 0 -1 1v27a.978.978 0 0 0 .09.41l4 9a1 1 0 0 0 1.82 0l4-9a.978.978 0 0 0 .09-.41v-27a1 1 0 0 0 -1-1zm-7 8h2v19h-2zm3 26.54-.68-1.54h1.36zm1.57-3.54h-3.14l-.89-2h4.92zm1.43-4h-2v-19h2zm0-21h-6v-4h6z" data-original="#000000" class="active-path" data-old_color="#000000" fill="#FFFFFF"/><path d="m36 60h2v2h-2z" data-original="#000000" class="active-path" data-old_color="#000000" fill="#FFFFFF"/><path d="m50 60h-2v2h2a5 5 0 0 0 3.75-1.693l-1.5-1.323a3 3 0 0 1 -2.25 1.016z" data-original="#000000" class="active-path" data-old_color="#000000" fill="#FFFFFF"/><path d="m54.71 10.29-8-8a1.033 1.033 0 0 0 -.71-.29h-32a5 5 0 0 0 -5 5v31h2v-31a3.009 3.009 0 0 1 3-3h31v5a3.009 3.009 0 0 0 3 3h5v10h2v-11a1.033 1.033 0 0 0 -.29-.71zm-6.71-.29a1 1 0 0 1 -1-1v-3.59l4.59 4.59z" data-original="#000000" class="active-path" data-old_color="#000000" fill="#FFFFFF"/><path d="m29 9a1 1 0 0 0 -1-1h-10a1 1 0 0 0 -1 1v10a1 1 0 0 0 1 1h3v-2h-2v-8h8v1h2z" data-original="#000000" class="active-path" data-old_color="#000000" fill="#FFFFFF"/><path d="m23 13h2v2h-2z" data-original="#000000" class="active-path" data-old_color="#000000" fill="#FFFFFF"/><path d="m27 13h2v2h-2z" data-original="#000000" class="active-path" data-old_color="#000000" fill="#FFFFFF"/><path d="m31 13h2v2h-2z" data-original="#000000" class="active-path" data-old_color="#000000" fill="#FFFFFF"/><path d="m31 17h2v2h-2z" data-original="#000000" class="active-path" data-old_color="#000000" fill="#FFFFFF"/><path d="m31 21h2v2h-2z" data-original="#000000" class="active-path" data-old_color="#000000" fill="#FFFFFF"/><path d="m27 21h2v2h-2z" data-original="#000000" class="active-path" data-old_color="#000000" fill="#FFFFFF"/><path d="m23 17h2v2h-2z" data-original="#000000" class="active-path" data-old_color="#000000" fill="#FFFFFF"/><path d="m23 21h2v2h-2z" data-original="#000000" class="active-path" data-old_color="#000000" fill="#FFFFFF"/></g></g> </svg>
