<?xml version="1.0"?>
<svg xmlns="http://www.w3.org/2000/svg" xmlns:xlink="http://www.w3.org/1999/xlink" version="1.1" id="Capa_1" x="0px" y="0px" viewBox="0 0 432.802 432.802" style="enable-background:new 0 0 432.802 432.802;" xml:space="preserve" width="512px" height="512px" class=""><g><g>
	<g>
		<path d="M431.484,136.401l-88.96-124.4c-1.44-2.189-3.861-3.534-6.48-3.6h-230.72c-1.078,0.027-2.139,0.272-3.12,0.72h-0.56    c-0.917,0.479-1.732,1.131-2.4,1.92l-97.52,124.8c-2.739,3.467-2.15,8.497,1.317,11.237c1.424,1.125,3.188,1.733,5.003,1.723h12.4    v267.6c0,4.418,3.582,8,8,8h376c4.418,0,8-3.582,8-8v-267.6h12.4c4.418-0.023,7.981-3.623,7.959-8.041    C432.794,139.21,432.336,137.696,431.484,136.401z M24.524,132.801l80.56-102.8l73.68,102.8H24.524z M79.004,408.401v-88h61.28    l0.08,88H79.004z M187.244,408.401h-30.88v-96c0-4.418-3.582-8-8-8h-77.36c-4.418,0-8,3.582-8,8v96h-26.56v-259.6h150.8V408.401z     M396.604,408.401h-193.36v-259.6h193.36V408.401z M404.604,133.041h-206.24l-77.84-108.64h211.44l77.52,108.16L404.604,133.041z" data-original="#000000" class="active-path" data-old_color="#000000" fill="#FFFFFF"/>
	</g>
</g><g>
	<g>
		<rect x="127.644" y="178.161" width="39.76" height="16" data-original="#000000" class="active-path" data-old_color="#000000" fill="#FFFFFF"/>
	</g>
</g><g>
	<g>
		<rect x="52.044" y="178.161" width="39.76" height="16" data-original="#000000" class="active-path" data-old_color="#000000" fill="#FFFFFF"/>
	</g>
</g><g>
	<g>
		<rect x="127.644" y="239.441" width="39.76" height="16" data-original="#000000" class="active-path" data-old_color="#000000" fill="#FFFFFF"/>
	</g>
</g><g>
	<g>
		<rect x="52.044" y="239.441" width="39.76" height="16" data-original="#000000" class="active-path" data-old_color="#000000" fill="#FFFFFF"/>
	</g>
</g><g>
	<g>
		<path d="M374.124,242.721l-27.12-37.6c-1.511-2.067-3.92-3.287-6.48-3.28h-96.4c-3.125-0.008-5.968,1.804-7.28,4.64    c-0.453,1.061-0.671,2.207-0.64,3.36v68.64c0,4.387,3.533,7.956,7.92,8h96.4c4.418,0,8-3.582,8-8v-23.04h19.12    c4.418,0.011,8.009-3.561,8.021-7.979C375.669,245.758,375.129,244.097,374.124,242.721z M332.524,270.561h-80.4v-39.12    l18.32,21.28c1.52,1.777,3.741,2.8,6.08,2.8h56V270.561z M280.524,239.441l-18.56-21.6h74.56l15.6,21.6H280.524z" data-original="#000000" class="active-path" data-old_color="#000000" fill="#FFFFFF"/>
	</g>
</g></g> </svg>
